<svg width="337" height="72" viewBox="0 0 337 72" fill="none" xmlns="http://www.w3.org/2000/svg">
<path d="M37.3096 22.0163L25.7325 39.6201H27.6021V40.1231V48.7453C27.6021 51.447 29.1841 51.7392 29.9751 51.5476H36.0153C37.6836 51.7775 37.5733 53.7032 37.3096 54.6372L24.5101 58.158C19.8505 58.5604 19.6923 51.332 20.1956 47.6676L22.4248 37.3927C22.9425 33.9438 24.0307 31.1176 24.5101 30.1356L30.838 16.2681C33.5992 16.0382 31.9885 20.675 30.838 23.0222L28.1055 27.4052C29.5676 25.6089 33.0527 21.4414 35.2962 19.1422C37.5398 16.8429 37.5733 20.1002 37.3096 22.0163Z" fill="#F5F5DC"/>
<path d="M48.2396 40.1231V49.9668C48.0095 51.0015 47.185 51.4518 46.8015 51.5476H39.9702C37.7842 52.3523 38.2444 54.1822 38.7478 54.9965C40.905 55.5474 46.4132 56.9365 51.1878 58.0861C55.9625 59.2358 56.2933 51.6673 55.8618 47.7394L52.4103 32.2193L45.4352 16.7711C43.6519 14.5293 43.4937 17.7051 43.6375 19.5733L44.9319 23.0222L47.952 27.4052L40.9769 19.5733C38.5033 16.4693 38.2205 19.8128 38.3883 21.8726L44.069 30.1356L49.7497 38.7579C50.6701 39.7351 50.1332 39.8836 49.7497 39.8357H48.2396V40.1231Z" fill="#F5F5DC"/>
<rect x="39.7393" y="33.6709" width="5.07572" height="5.3577" rx="2.53786" fill="#F5F5DC"/>
<rect x="39.7393" y="40.4387" width="5.07572" height="5.3577" rx="2.53786" fill="#F5F5DC"/>
<rect x="31.8428" y="33.6709" width="5.07572" height="5.3577" rx="2.53786" fill="#F5F5DC"/>
<rect x="31.8428" y="40.4387" width="5.07572" height="5.3577" rx="2.53786" fill="#F5F5DC"/>
<path d="M76.7709 37.36C76.7709 38.1067 76.5909 38.8067 76.2309 39.46C75.8843 40.1133 75.3309 40.64 74.5709 41.04C73.8243 41.44 72.8776 41.64 71.7309 41.64H69.3909V47H66.5909V33.04H71.7309C72.8109 33.04 73.7309 33.2267 74.4909 33.6C75.2509 33.9733 75.8176 34.4867 76.1909 35.14C76.5776 35.7933 76.7709 36.5333 76.7709 37.36ZM71.6109 39.38C72.3843 39.38 72.9576 39.2067 73.3309 38.86C73.7043 38.5 73.8909 38 73.8909 37.36C73.8909 36 73.1309 35.32 71.6109 35.32H69.3909V39.38H71.6109ZM78.0389 41.42C78.0389 40.3 78.2589 39.3067 78.6989 38.44C79.1522 37.5733 79.7589 36.9067 80.5189 36.44C81.2922 35.9733 82.1522 35.74 83.0989 35.74C83.9256 35.74 84.6456 35.9067 85.2589 36.24C85.8856 36.5733 86.3856 36.9933 86.7589 37.5V35.92H89.5789V47H86.7589V45.38C86.3989 45.9 85.8989 46.3333 85.2589 46.68C84.6322 47.0133 83.9056 47.18 83.0789 47.18C82.1456 47.18 81.2922 46.94 80.5189 46.46C79.7589 45.98 79.1522 45.3067 78.6989 44.44C78.2589 43.56 78.0389 42.5533 78.0389 41.42ZM86.7589 41.46C86.7589 40.78 86.6256 40.2 86.3589 39.72C86.0922 39.2267 85.7322 38.8533 85.2789 38.6C84.8256 38.3333 84.3389 38.2 83.8189 38.2C83.2989 38.2 82.8189 38.3267 82.3789 38.58C81.9389 38.8333 81.5789 39.2067 81.2989 39.7C81.0322 40.18 80.8989 40.7533 80.8989 41.42C80.8989 42.0867 81.0322 42.6733 81.2989 43.18C81.5789 43.6733 81.9389 44.0533 82.3789 44.32C82.8322 44.5867 83.3122 44.72 83.8189 44.72C84.3389 44.72 84.8256 44.5933 85.2789 44.34C85.7322 44.0733 86.0922 43.7 86.3589 43.22C86.6256 42.7267 86.7589 42.14 86.7589 41.46ZM93.7336 34.6C93.2403 34.6 92.8269 34.4467 92.4936 34.14C92.1736 33.82 92.0136 33.4267 92.0136 32.96C92.0136 32.4933 92.1736 32.1067 92.4936 31.8C92.8269 31.48 93.2403 31.32 93.7336 31.32C94.2269 31.32 94.6336 31.48 94.9536 31.8C95.2869 32.1067 95.4536 32.4933 95.4536 32.96C95.4536 33.4267 95.2869 33.82 94.9536 34.14C94.6336 34.4467 94.2269 34.6 93.7336 34.6ZM95.1136 35.92V47H92.3136V35.92H95.1136ZM100.68 37.64C101.04 37.0533 101.507 36.5933 102.08 36.26C102.667 35.9267 103.333 35.76 104.08 35.76V38.7H103.34C102.46 38.7 101.793 38.9067 101.34 39.32C100.9 39.7333 100.68 40.4533 100.68 41.48V47H97.88V35.92H100.68V37.64ZM105.246 41.46C105.246 40.3133 105.479 39.3133 105.946 38.46C106.413 37.5933 107.059 36.9267 107.886 36.46C108.713 35.98 109.659 35.74 110.726 35.74C112.099 35.74 113.233 36.0867 114.126 36.78C115.033 37.46 115.639 38.42 115.946 39.66H112.926C112.766 39.18 112.493 38.8067 112.106 38.54C111.733 38.26 111.266 38.12 110.706 38.12C109.906 38.12 109.273 38.4133 108.806 39C108.339 39.5733 108.106 40.3933 108.106 41.46C108.106 42.5133 108.339 43.3333 108.806 43.92C109.273 44.4933 109.906 44.78 110.706 44.78C111.839 44.78 112.579 44.2733 112.926 43.26H115.946C115.639 44.46 115.033 45.4133 114.126 46.12C113.219 46.8267 112.086 47.18 110.726 47.18C109.659 47.18 108.713 46.9467 107.886 46.48C107.059 46 106.413 45.3333 105.946 44.48C105.479 43.6133 105.246 42.6067 105.246 41.46ZM128.457 35.92V47H125.637V45.6C125.277 46.08 124.804 46.46 124.217 46.74C123.644 47.0067 123.017 47.14 122.337 47.14C121.471 47.14 120.704 46.96 120.037 46.6C119.371 46.2267 118.844 45.6867 118.457 44.98C118.084 44.26 117.897 43.4067 117.897 42.42V35.92H120.697V42.02C120.697 42.9 120.917 43.58 121.357 44.06C121.797 44.5267 122.397 44.76 123.157 44.76C123.931 44.76 124.537 44.5267 124.977 44.06C125.417 43.58 125.637 42.9 125.637 42.02V35.92H128.457ZM134.02 32.2V47H131.22V32.2H134.02ZM136.066 41.42C136.066 40.3 136.286 39.3067 136.726 38.44C137.18 37.5733 137.786 36.9067 138.546 36.44C139.32 35.9733 140.18 35.74 141.126 35.74C141.953 35.74 142.673 35.9067 143.286 36.24C143.913 36.5733 144.413 36.9933 144.786 37.5V35.92H147.606V47H144.786V45.38C144.426 45.9 143.926 46.3333 143.286 46.68C142.66 47.0133 141.933 47.18 141.106 47.18C140.173 47.18 139.32 46.94 138.546 46.46C137.786 45.98 137.18 45.3067 136.726 44.44C136.286 43.56 136.066 42.5533 136.066 41.42ZM144.786 41.46C144.786 40.78 144.653 40.2 144.386 39.72C144.12 39.2267 143.76 38.8533 143.306 38.6C142.853 38.3333 142.366 38.2 141.846 38.2C141.326 38.2 140.846 38.3267 140.406 38.58C139.966 38.8333 139.606 39.2067 139.326 39.7C139.06 40.18 138.926 40.7533 138.926 41.42C138.926 42.0867 139.06 42.6733 139.326 43.18C139.606 43.6733 139.966 44.0533 140.406 44.32C140.86 44.5867 141.34 44.72 141.846 44.72C142.366 44.72 142.853 44.5933 143.306 44.34C143.76 44.0733 144.12 43.7 144.386 43.22C144.653 42.7267 144.786 42.14 144.786 41.46ZM153.141 37.64C153.501 37.0533 153.968 36.5933 154.541 36.26C155.128 35.9267 155.794 35.76 156.541 35.76V38.7H155.801C154.921 38.7 154.254 38.9067 153.801 39.32C153.361 39.7333 153.141 40.4533 153.141 41.48V47H150.341V35.92H153.141V37.64ZM164.667 35.76C165.507 35.76 166.254 35.9467 166.907 36.32C167.56 36.68 168.067 37.22 168.427 37.94C168.8 38.6467 168.987 39.5 168.987 40.5V47H166.187V40.88C166.187 40 165.967 39.3267 165.527 38.86C165.087 38.38 164.487 38.14 163.727 38.14C162.954 38.14 162.34 38.38 161.887 38.86C161.447 39.3267 161.227 40 161.227 40.88V47H158.427V32.2H161.227V37.3C161.587 36.82 162.067 36.4467 162.667 36.18C163.267 35.9 163.934 35.76 164.667 35.76ZM176.57 47.18C175.503 47.18 174.543 46.9467 173.69 46.48C172.836 46 172.163 45.3267 171.67 44.46C171.19 43.5933 170.95 42.5933 170.95 41.46C170.95 40.3267 171.196 39.3267 171.69 38.46C172.196 37.5933 172.883 36.9267 173.75 36.46C174.616 35.98 175.583 35.74 176.65 35.74C177.716 35.74 178.683 35.98 179.55 36.46C180.416 36.9267 181.096 37.5933 181.59 38.46C182.096 39.3267 182.35 40.3267 182.35 41.46C182.35 42.5933 182.09 43.5933 181.57 44.46C181.063 45.3267 180.37 46 179.49 46.48C178.623 46.9467 177.65 47.18 176.57 47.18ZM176.57 44.74C177.076 44.74 177.55 44.62 177.99 44.38C178.443 44.1267 178.803 43.7533 179.07 43.26C179.336 42.7667 179.47 42.1667 179.47 41.46C179.47 40.4067 179.19 39.6 178.63 39.04C178.083 38.4667 177.41 38.18 176.61 38.18C175.81 38.18 175.136 38.4667 174.59 39.04C174.056 39.6 173.79 40.4067 173.79 41.46C173.79 42.5133 174.05 43.3267 174.57 43.9C175.103 44.46 175.77 44.74 176.57 44.74ZM187.203 32.2V47H184.403V32.2H187.203ZM203.73 35.76C205.09 35.76 206.183 36.18 207.01 37.02C207.85 37.8467 208.27 39.0067 208.27 40.5V47H205.47V40.88C205.47 40.0133 205.25 39.3533 204.81 38.9C204.37 38.4333 203.77 38.2 203.01 38.2C202.25 38.2 201.643 38.4333 201.19 38.9C200.75 39.3533 200.53 40.0133 200.53 40.88V47H197.73V40.88C197.73 40.0133 197.51 39.3533 197.07 38.9C196.63 38.4333 196.03 38.2 195.27 38.2C194.497 38.2 193.883 38.4333 193.43 38.9C192.99 39.3533 192.77 40.0133 192.77 40.88V47H189.97V35.92H192.77V37.26C193.13 36.7933 193.59 36.4267 194.15 36.16C194.723 35.8933 195.35 35.76 196.03 35.76C196.897 35.76 197.67 35.9467 198.35 36.32C199.03 36.68 199.557 37.2 199.93 37.88C200.29 37.24 200.81 36.7267 201.49 36.34C202.183 35.9533 202.93 35.76 203.73 35.76ZM221.227 41.22C221.227 41.62 221.2 41.98 221.147 42.3H213.047C213.114 43.1 213.394 43.7267 213.887 44.18C214.38 44.6333 214.987 44.86 215.707 44.86C216.747 44.86 217.487 44.4133 217.927 43.52H220.947C220.627 44.5867 220.014 45.4667 219.107 46.16C218.2 46.84 217.087 47.18 215.767 47.18C214.7 47.18 213.74 46.9467 212.887 46.48C212.047 46 211.387 45.3267 210.907 44.46C210.44 43.5933 210.207 42.5933 210.207 41.46C210.207 40.3133 210.44 39.3067 210.907 38.44C211.374 37.5733 212.027 36.9067 212.867 36.44C213.707 35.9733 214.674 35.74 215.767 35.74C216.82 35.74 217.76 35.9667 218.587 36.42C219.427 36.8733 220.074 37.52 220.527 38.36C220.994 39.1867 221.227 40.14 221.227 41.22ZM218.327 40.42C218.314 39.7 218.054 39.1267 217.547 38.7C217.04 38.26 216.42 38.04 215.687 38.04C214.994 38.04 214.407 38.2533 213.927 38.68C213.46 39.0933 213.174 39.6733 213.067 40.42H218.327ZM227.511 47.18C226.604 47.18 225.791 47.02 225.071 46.7C224.351 46.3667 223.777 45.92 223.351 45.36C222.937 44.8 222.711 44.18 222.671 43.5H225.491C225.544 43.9267 225.751 44.28 226.111 44.56C226.484 44.84 226.944 44.98 227.491 44.98C228.024 44.98 228.437 44.8733 228.731 44.66C229.037 44.4467 229.191 44.1733 229.191 43.84C229.191 43.48 229.004 43.2133 228.631 43.04C228.271 42.8533 227.691 42.6533 226.891 42.44C226.064 42.24 225.384 42.0333 224.851 41.82C224.331 41.6067 223.877 41.28 223.491 40.84C223.117 40.4 222.931 39.8067 222.931 39.06C222.931 38.4467 223.104 37.8867 223.451 37.38C223.811 36.8733 224.317 36.4733 224.971 36.18C225.637 35.8867 226.417 35.74 227.311 35.74C228.631 35.74 229.684 36.0733 230.471 36.74C231.257 37.3933 231.691 38.28 231.771 39.4H229.091C229.051 38.96 228.864 38.6133 228.531 38.36C228.211 38.0933 227.777 37.96 227.231 37.96C226.724 37.96 226.331 38.0533 226.051 38.24C225.784 38.4267 225.651 38.6867 225.651 39.02C225.651 39.3933 225.837 39.68 226.211 39.88C226.584 40.0667 227.164 40.26 227.951 40.46C228.751 40.66 229.411 40.8667 229.931 41.08C230.451 41.2933 230.897 41.6267 231.271 42.08C231.657 42.52 231.857 43.1067 231.871 43.84C231.871 44.48 231.691 45.0533 231.331 45.56C230.984 46.0667 230.477 46.4667 229.811 46.76C229.157 47.04 228.391 47.18 227.511 47.18Z" fill="#F5F5DC"/>
</svg>
